<svg width="166" height="124" viewBox="0 0 166 124" fill="none" xmlns="http://www.w3.org/2000/svg">
<path d="M164.633 58.9135C164.423 51.1835 162.783 43.1736 159.733 36.2236C159.743 36.2936 159.763 36.3636 159.763 36.4336L159.683 36.3737C161.693 42.1838 163.413 50.9635 163.313 57.1435C161.133 44.0735 157.363 29.1637 146.993 19.7737C150.213 20.8837 154.183 27.4238 156.273 29.8838C142.713 4.71376 105.893 -2.85646 80.0231 0.913543C81.1131 1.09354 87.3431 0.093533 88.5131 1.15353C85.0431 1.03353 68.1731 3.43367 76.5432 1.54367C13.1232 3.75367 -25.8569 63.8737 19.9931 91.8337C20.3231 91.9937 20.6731 92.1337 21.0131 92.2737C-3.91688 70.2137 -1.64688 35.5037 29.2631 19.8437C29.1231 19.9937 28.1832 20.9037 28.0932 21.0537C32.0832 18.2937 60.3631 4.93359 57.9931 8.46359C153.313 -18.4364 196.813 82.9337 127.303 96.8137L127.733 96.8838C101.493 104.054 71.5131 103.534 44.0231 101.274C41.3931 100.674 38.5532 100.554 37.1432 103.294C32.4733 108.084 27.0832 112.014 21.1032 115.054C21.9432 111.644 23.7333 104.404 23.9633 101.294C24.2333 84.3837 17.0633 117.654 13.6533 123.294C23.7333 118.864 33.5131 112.644 41.2631 105.034C47.9631 105.714 55.4932 107.174 61.7932 106.544C71.1232 107.374 80.2333 107.674 90.4433 106.524C90.4233 106.524 89.2731 107.024 89.2531 107.034C119.743 106.504 171.013 101.414 164.643 58.9035L164.633 58.9135Z" fill="#101214"/>
</svg>
