<svg width="212" height="150" viewBox="0 0 212 150" fill="none" xmlns="http://www.w3.org/2000/svg">
<path d="M211.889 59.541C214.564 16.8124 168.522 -4.17157 131.564 0.689712C131.616 0.715942 132.01 0.689798 131.721 0.777231C139.625 0.471215 151.918 1.188 159.665 3.0066C141.54 1.27543 122.235 0.987037 104.774 7.08112C110.947 3.57506 119.883 2.85798 122.182 1.93119C115.887 2.79678 108.018 4.67673 101.635 7.09863C101.679 7.08114 101.67 7.08987 101.662 7.08987C101.662 7.08987 101.662 7.08987 101.679 7.08987C72.1355 14.4605 42.111 28.8694 22.0713 52.0479C24.4058 49.9233 27.5009 45.744 30.5698 44.4062C26.6703 47.2391 12.6374 64.9268 19.1337 55.8163C-44.1154 141.3 64.8175 159.696 123.17 124.513C129.308 121.54 128.206 121.601 118.816 125.011C119.21 124.74 119.594 124.451 119.979 124.154C86.3871 135.949 35.4137 154.1 9.09638 119.651C9.25376 119.852 10.4079 121.111 10.6177 121.251C2.84491 112.342 2.16283 89.2856 7.67986 79.1696C8.93015 76.3281 9.22735 75.9258 8.03826 79.7904C34.0583 14.9413 200.374 -42.4935 206.686 60.5464C206.748 60.3802 206.809 60.2228 206.852 60.0567C212.868 97.9152 95.8036 118.444 163.206 144.211C147.328 155.516 110.624 119.809 119.568 131.831C130.803 146.135 153.903 154.415 171.355 145.225C128.556 124.792 144.644 124.713 179.46 100.556C179.442 100.573 178.34 101.762 178.314 101.789C192.898 92.2672 211.827 79.4232 211.897 59.5497L211.889 59.541ZM58.907 139.254L59.6588 139.201C59.6588 139.367 58.6709 139.7 58.907 139.254Z" fill="#101214"/>
</svg>
