<svg width="1557" height="310" viewBox="0 0 1557 310" fill="none" xmlns="http://www.w3.org/2000/svg">
<path d="M140.55 109.202H0.535156V94.5537H140.55V109.202ZM130.784 176.707C130.784 185.659 128.099 194.122 122.728 202.098C117.763 209.503 111.212 215.566 103.074 220.286C94.9362 224.925 87.4085 227.244 80.4912 227.244C73.7367 227.244 65.3138 223.46 55.2227 215.892C50.3398 212.229 43.1784 205.923 33.7383 196.971V300.486L14.207 290.232V128.733H33.25V158.519L40.6963 150.706C57.8675 132.721 71.7835 123.729 82.4443 123.729C94.0003 123.729 105.027 129.71 115.525 141.673C125.698 153.31 130.784 164.988 130.784 176.707ZM118.699 162.547C118.699 156.362 115.485 150.421 109.056 144.725C105.882 141.876 101.854 140.452 96.9707 140.452C87.3678 140.452 75.4456 146.271 61.2041 157.908C46.5557 169.871 39.2314 180.491 39.2314 189.769C39.2314 195.221 44.3177 200.022 54.4902 204.173C59.0475 206.045 63.4827 206.98 67.7959 206.98C81.9561 206.98 94.2445 201.528 104.661 190.623C114.02 180.857 118.699 171.499 118.699 162.547ZM274.949 109.202H172.776V187.449C172.776 192.658 173.875 198.029 176.072 203.562C180.548 214.874 187.954 220.53 198.289 220.53C212.205 220.53 222.785 214.712 230.027 203.074C235.643 194.122 238.45 185.7 238.45 177.806V129.222H263.23V233.226C261.277 232.086 257.615 230.337 252.244 227.977L238.206 221.751V211.985C228.603 218.984 220.384 223.419 213.548 225.291C209.397 226.43 204.474 227 198.777 227C180.711 227 166.591 219.065 156.419 203.196C151.78 195.953 149.461 188.06 149.461 179.515V109.202H134.69V94.5537H274.949V109.202ZM396.165 109.202H272.752V94.5537H396.165V109.202ZM386.033 153.025C386.033 157.827 383.144 163.239 377.366 169.261C372.483 174.388 367.356 178.213 361.985 180.735L343.675 159.983C349.209 159.495 354.458 157.461 359.422 153.88C365.118 149.811 367.967 145.172 367.967 139.964C367.967 137.197 366.176 134.837 362.596 132.884C359.503 131.093 356.451 130.198 353.44 130.198C347.174 130.198 340.46 133.209 333.299 139.231C318.732 151.438 311.448 164.948 311.448 179.759V231.517L288.011 219.31V128.978H311.692V138.255C315.192 134.756 322.435 131.093 333.421 127.269C338.792 125.397 344.326 124.461 350.022 124.461C361.823 124.461 371.832 128.978 380.052 138.011C384.039 142.405 386.033 147.41 386.033 153.025ZM545.579 94.5537L545.335 109.202H532.884V132.518C531.419 135.447 528.001 141.632 522.63 151.072L479.295 227.244C472.052 227.244 462.571 221.507 450.853 210.032C437.994 197.5 431.565 183.584 431.565 168.284C431.565 160.472 434.088 153.188 439.134 146.434C441.412 143.341 442.552 141.022 442.552 139.476C442.552 136.627 440.151 135.203 435.35 135.203C431.769 135.203 428.31 136.668 424.974 139.598C423.753 140.656 421.108 143.545 417.039 148.265L401.292 133.982C406.663 129.425 411.912 126.618 417.039 125.56C419.562 124.99 422.817 124.705 426.805 124.705C448.859 124.461 459.886 136.22 459.886 159.983C459.886 163.157 459.52 167.918 458.787 174.266C458.136 180.613 457.811 185.374 457.811 188.548C457.811 201.406 460.089 208.405 464.646 209.544C467.169 209.544 470.14 206.451 473.558 200.267L510.789 133.006V109.202H392.137V94.5537H545.579ZM701.097 94.5537L700.853 109.202H688.401V132.518C686.937 135.447 683.519 141.632 678.147 151.072L634.812 227.244C627.57 227.244 618.089 221.507 606.37 210.032C593.512 197.5 587.083 183.584 587.083 168.284C587.083 160.472 589.606 153.188 594.651 146.434C596.93 143.341 598.069 141.022 598.069 139.476C598.069 136.627 595.669 135.203 590.867 135.203C587.286 135.203 583.828 136.668 580.491 139.598C579.271 140.656 576.626 143.545 572.557 148.265L556.81 133.982C562.181 129.425 567.43 126.618 572.557 125.56C575.079 124.99 578.335 124.705 582.322 124.705C604.376 124.461 615.403 136.22 615.403 159.983C615.403 163.157 615.037 167.918 614.305 174.266C613.654 180.613 613.328 185.374 613.328 188.548C613.328 201.406 615.607 208.405 620.164 209.544C622.687 209.544 625.657 206.451 629.075 200.267L666.307 133.006V109.202H547.654V94.5537H701.097ZM746.385 81.7363C746.059 82.0618 745.123 82.2246 743.577 82.2246C742.275 82.2246 741.136 82.0618 740.159 81.7363L732.225 65.501C728.969 60.374 724.534 56.9154 718.919 55.125C713.385 53.2533 709.967 51.2188 708.665 49.0215C707.444 45.278 705.084 39.5407 701.585 31.8096V29.002H706.346C712.612 30.9551 717.698 32.7861 721.604 34.4951C728.034 37.3434 732.347 40.6393 734.544 44.3828C735.765 46.4173 737.636 51.6257 740.159 60.0078C742.519 67.9017 744.513 73.3949 746.141 76.4873C746.303 77.9521 746.385 79.7018 746.385 81.7363ZM753.587 109.202H703.904V94.5537H753.587V109.202ZM739.671 229.808L719.163 218.455V124.217H739.671V229.808ZM893.235 109.202H877.244L877 228.465L854.783 218.943V201.487C841.6 218.496 828.66 227 815.965 227C807.908 227 799.119 223.623 789.598 216.868C781.46 211.09 774.705 204.336 769.334 196.604C762.986 187.49 759.853 178.619 759.935 169.993C760.016 162.099 764.37 152.944 772.996 142.527C782.68 130.809 794.358 124.949 808.03 124.949C816.738 124.949 825.486 128.652 834.275 136.058C836.961 138.255 843.797 145.335 854.783 157.298V109.202H750.291V94.5537H854.783C854.783 77.708 853.359 64.5244 850.511 55.0029C846.279 40.8428 836.839 23.9971 822.19 4.46582C821.865 4.30306 821.702 3.65202 821.702 2.5127C821.702 1.53613 821.946 0.885091 822.435 0.55957H845.75C866.746 23.7529 877.244 55.0843 877.244 94.5537H893.235V109.202ZM848.924 164.744C848.924 158.396 845.465 152.944 838.548 148.387C832.363 144.318 825.934 142.283 819.261 142.283C814.378 142.283 808.274 144.562 800.95 149.119C785 159.048 777.024 170.766 777.024 184.275C777.024 191.681 779.018 198.11 783.006 203.562C787.4 209.666 793.138 212.718 800.218 212.718C807.542 212.718 815.354 209.381 823.655 202.708C829.433 198.069 834.804 192.373 839.769 185.618C845.872 177.317 848.924 170.359 848.924 164.744ZM1031.66 94.5537L1031.42 109.202H928.392L928.636 181.224C928.636 191.803 930.467 199.493 934.129 204.295C938.279 209.585 945.522 212.474 955.857 212.962C962.449 213.287 969.041 211.131 975.633 206.492C981.492 202.423 986.334 197.256 990.159 190.989C994.31 184.153 996.385 177.48 996.385 170.97L996.141 124.949L1021.65 133.738V258.738C1021.65 273.956 1014.65 286.367 1000.66 295.97C987.718 304.84 972.54 309.275 955.125 309.275C925.665 309.275 904.71 301.259 892.259 285.228C887.213 278.717 884.69 273.143 884.69 268.504C884.772 258.331 890.468 249.786 901.78 242.869C911.79 236.766 922.166 233.714 932.908 233.714L948.411 254.466C934.414 255.442 921.881 258.413 910.813 263.377C903.571 266.632 899.949 270.823 899.949 275.95C900.844 283.356 906.419 289.907 916.673 295.604C922.776 299.021 930.67 300.73 940.354 300.73C962.571 300.73 979.336 293.528 990.647 279.124C996.019 272.288 998.704 264.313 998.704 255.198V205.516C993.414 214.142 979.295 218.455 956.346 218.455C937.059 218.455 922.451 211.863 912.522 198.68C907.64 192.251 905.198 184.926 905.198 176.707V109.202H887.864V94.5537H1031.66ZM1149.34 109.202H1068.04V128.733C1068.37 128.733 1068.69 128.896 1069.02 129.222C1069.34 129.547 1069.63 129.71 1069.87 129.71C1069.22 129.71 1068.85 129.669 1068.77 129.588C1068.77 129.181 1074.84 127.879 1086.96 125.682C1091.44 124.868 1095.87 124.461 1100.27 124.461C1118.58 124.461 1130.34 129.588 1135.54 139.842C1139.04 146.678 1140.79 160.472 1140.79 181.224V228.221C1139.08 227.57 1132.62 224.925 1121.38 220.286C1121.38 217.682 1120.86 216.014 1119.8 215.281C1115.48 217.804 1111.94 219.716 1109.18 221.019C1100.39 225.169 1090.18 227.244 1078.54 227.244C1062.51 227.244 1050.14 222.199 1041.43 212.107C1037.2 207.225 1035.08 201.772 1035.08 195.75C1035.08 188.995 1038.42 182.282 1045.09 175.608C1058.03 162.669 1074.1 156.199 1093.31 156.199C1104.95 156.199 1114.3 158.885 1121.38 164.256V153.025C1117.8 148.468 1114.3 145.416 1110.89 143.87C1107.55 142.324 1102.95 141.632 1097.09 141.795C1083.99 142.039 1071.99 144.44 1061.08 148.997C1056.2 151.032 1051.44 152.863 1046.8 154.49V145.457C1047.86 144.562 1049.4 143.219 1051.44 141.429C1051.76 141.022 1051.97 140.778 1052.05 140.696V109.202H1027.02V94.5537H1149.34V109.202ZM1121.38 186.473C1121.38 182.892 1117.11 179.677 1108.57 176.829C1101.49 174.469 1095.59 173.289 1090.87 173.289C1073.7 173.289 1059.94 179.474 1049.61 191.844C1045.46 196.808 1043.38 200.877 1043.38 204.051C1045.09 209.992 1051.8 212.962 1063.52 212.962C1078.66 212.962 1092.49 209.178 1105.03 201.609C1115.93 195.018 1121.38 189.972 1121.38 186.473ZM1271.17 109.202H1147.75V94.5537H1271.17V109.202ZM1261.03 153.025C1261.03 157.827 1258.14 163.239 1252.37 169.261C1247.48 174.388 1242.36 178.213 1236.99 180.735L1218.67 159.983C1224.21 159.495 1229.46 157.461 1234.42 153.88C1240.12 149.811 1242.97 145.172 1242.97 139.964C1242.97 137.197 1241.18 134.837 1237.6 132.884C1234.5 131.093 1231.45 130.198 1228.44 130.198C1222.17 130.198 1215.46 133.209 1208.3 139.231C1193.73 151.438 1186.45 164.948 1186.45 179.759V231.517L1163.01 219.31V128.978H1186.69V138.255C1190.19 134.756 1197.43 131.093 1208.42 127.269C1213.79 125.397 1219.33 124.461 1225.02 124.461C1236.82 124.461 1246.83 128.978 1255.05 138.011C1259.04 142.405 1261.03 147.41 1261.03 153.025ZM1377.12 109.202H1315.35V207.469C1315.35 210.236 1316.25 212.921 1318.04 215.525C1319.91 218.374 1322.19 219.798 1324.88 219.798C1337 219.798 1343.06 207.265 1343.06 182.2L1367.6 196.238C1358.24 216.99 1343.76 227.326 1324.14 227.244C1312.75 227.163 1303.88 221.954 1297.53 211.619C1294.77 207.143 1293.38 202.667 1293.38 198.191V109.202H1267.87V94.5537H1293.38V53.5381L1315.35 68.7969V94.5537H1377.12V109.202ZM1509.57 109.202H1411.06V145.945C1419.93 136.261 1428.15 130.035 1435.72 127.269C1439.95 125.722 1444.71 124.949 1450 124.949C1469.85 124.949 1484.71 134.715 1494.55 154.246C1498.87 162.791 1501.02 171.214 1501.02 179.515C1501.02 194.651 1494.8 208.323 1482.35 220.53C1478.2 224.599 1475.1 227.407 1473.07 228.953L1453.05 216.99C1458.1 211.701 1463.83 205.19 1470.26 197.459C1477.5 188.751 1481.17 177.765 1481.25 164.5C1481.33 156.606 1479.54 150.014 1475.88 144.725C1471.73 138.54 1465.87 135.529 1458.3 135.691C1451.3 135.854 1443.81 138.499 1435.84 143.626C1428.68 148.183 1422.74 153.636 1418.02 159.983C1412.89 166.819 1410.33 173.411 1410.33 179.759V228.221L1387.5 216.014V109.202H1374.07V94.5537H1387.5C1387.5 70.6279 1381.27 50.2015 1368.82 33.2744C1361.33 23.1019 1354.42 15.9404 1348.07 11.79L1372.73 11.5459C1386.4 19.0329 1397.26 35.1868 1405.32 60.0078C1409.15 71.8079 1411.06 83.3232 1411.06 94.5537H1509.57V109.202ZM1549.61 81.7363C1549.28 82.0618 1548.35 82.2246 1546.8 82.2246C1545.5 82.2246 1544.36 82.0618 1543.38 81.7363L1535.45 65.501C1532.19 60.374 1527.76 56.9154 1522.14 55.125C1516.61 53.2533 1513.19 51.2188 1511.89 49.0215C1510.67 45.278 1508.31 39.5407 1504.81 31.8096V29.002H1509.57C1515.83 30.9551 1520.92 32.7861 1524.83 34.4951C1531.26 37.3434 1535.57 40.6393 1537.77 44.3828C1538.99 46.4173 1540.86 51.6257 1543.38 60.0078C1545.74 67.9017 1547.74 73.3949 1549.36 76.4873C1549.53 77.9521 1549.61 79.7018 1549.61 81.7363ZM1556.81 109.202H1507.13V94.5537H1556.81V109.202ZM1542.89 229.808L1522.39 218.455V124.217H1542.89V229.808Z" fill="black"/>
</svg>
