<svg width="600" height="600" viewBox="0 0 600 600" fill="none" xmlns="http://www.w3.org/2000/svg">
<g clip-path="url(#clip0_852_2)">
<rect width="600" height="600" fill="#663399"/>
<path d="M292.016 142.828H23.1875V114.703H292.016V142.828ZM273.266 272.438C273.266 289.625 268.109 305.875 257.797 321.188C248.266 335.406 235.688 347.047 220.062 356.109C204.438 365.016 189.984 369.469 176.703 369.469C163.734 369.469 147.562 362.203 128.188 347.672C118.812 340.641 105.062 328.531 86.9375 311.344V510.094L49.4375 490.406V180.328H86V237.516L100.297 222.516C133.266 187.984 159.984 170.719 180.453 170.719C202.641 170.719 223.812 182.203 243.969 205.172C263.5 227.516 273.266 249.938 273.266 272.438ZM250.062 245.25C250.062 233.375 243.891 221.969 231.547 211.031C225.453 205.562 217.719 202.828 208.344 202.828C189.906 202.828 167.016 214 139.672 236.344C111.547 259.312 97.4844 279.703 97.4844 297.516C97.4844 307.984 107.25 317.203 126.781 325.172C135.531 328.766 144.047 330.562 152.328 330.562C179.516 330.562 203.109 320.094 223.109 299.156C241.078 280.406 250.062 262.438 250.062 245.25ZM578.422 114.703L577.953 142.828H554.047V187.594C551.234 193.219 544.672 205.094 534.359 223.219L451.156 369.469C437.25 369.469 419.047 358.453 396.547 336.422C371.859 312.359 359.516 285.641 359.516 256.266C359.516 241.266 364.359 227.281 374.047 214.312C378.422 208.375 380.609 203.922 380.609 200.953C380.609 195.484 376 192.75 366.781 192.75C359.906 192.75 353.266 195.562 346.859 201.188C344.516 203.219 339.438 208.766 331.625 217.828L301.391 190.406C311.703 181.656 321.781 176.266 331.625 174.234C336.469 173.141 342.719 172.594 350.375 172.594C392.719 172.125 413.891 194.703 413.891 240.328C413.891 246.422 413.188 255.562 411.781 267.75C410.531 279.938 409.906 289.078 409.906 295.172C409.906 319.859 414.281 333.297 423.031 335.484C427.875 335.484 433.578 329.547 440.141 317.672L511.625 188.531V142.828H283.812V114.703H578.422Z" fill="white"/>
</g>
<defs>
<clipPath id="clip0_852_2">
<rect width="600" height="600" fill="white"/>
</clipPath>
</defs>
</svg>
